<svg width="50" height="44" viewBox="0 0 50 44" fill="none" xmlns="http://www.w3.org/2000/svg">
<path d="M26.062 24.7404C26.1578 22.9348 26.9745 21.3414 28.2078 20.2128C29.5018 19.0484 31.134 18.4169 32.8162 18.4298C34.587 18.4298 36.2141 19.1069 37.4224 20.2128C38.6558 21.3414 39.4703 22.9348 39.5641 24.7382C39.6578 26.5957 38.9703 28.3178 37.762 29.5976C36.4311 30.9746 34.6564 31.7343 32.8162 31.7147C30.9746 31.7345 29.1986 30.9749 27.8661 29.5976C26.6578 28.3178 25.9682 26.5957 26.062 24.7404ZM15.312 28.3901C15.3245 29.0988 15.5328 30.471 15.8453 31.5454C16.5199 33.8567 17.6526 35.9805 19.164 37.768C20.785 39.6988 22.7634 41.2377 24.9703 42.2843C27.3721 43.4314 29.9705 44.0159 32.5953 43.9997C35.2197 44.0053 37.8157 43.4116 40.2141 42.2572C42.4194 41.2007 44.3959 39.6553 46.0162 37.7206C47.5252 35.9272 48.6568 33.8002 49.3329 31.4867C49.9829 29.2452 50.1609 26.8744 49.8537 24.5486C49.5612 22.3204 48.8401 20.1835 47.737 18.2763C46.7152 16.5022 45.4085 14.9405 43.8787 13.6652H43.8828L28.262 0.671471L28.2203 0.637616C27.1953 -0.215542 25.4724 -0.211028 24.3453 0.642129C23.2057 1.50431 23.0766 2.93301 24.0891 3.83583L24.087 3.83808L30.5995 9.57771L10.7453 9.60028H10.7182C9.07652 9.60254 7.49944 10.7694 7.18694 12.2455C6.8661 13.7464 7.97861 14.9923 9.68694 14.9991V15.0036L19.7495 14.981L1.79109 29.9158L1.72026 29.9722C0.0265057 31.3761 -0.519329 33.7144 0.54734 35.1927C1.63068 36.6982 3.93276 36.7004 5.64527 35.2018L15.4453 26.5145C15.4453 26.5145 15.2995 27.6881 15.312 28.3901ZM40.4995 32.3195C38.4787 34.5495 35.6537 35.8134 32.5932 35.8179C29.5307 35.827 26.7036 34.5721 24.6828 32.3466C23.7286 31.3088 22.9924 30.0601 22.5245 28.6857C22.0956 27.3927 21.9262 26.0154 22.0275 24.6458C22.1288 23.2762 22.4985 21.9458 23.112 20.7432C23.7222 19.5545 24.5377 18.504 25.5141 17.6488C27.4766 15.9154 29.9745 14.9788 32.5891 14.9743C35.2057 14.9698 37.7037 15.8997 39.6683 17.6263C40.6683 18.5088 41.4808 19.5538 42.0683 20.7116C42.6764 21.8981 43.0469 23.2101 43.1558 24.5621C43.2662 25.9476 43.0962 27.3426 42.6578 28.6496C42.1898 30.026 41.4524 31.2775 40.4995 32.3195Z" fill="black"/>
</svg>
