<svg width="43" height="43" viewBox="0 0 43 43" fill="none" xmlns="http://www.w3.org/2000/svg">
<path fill-rule="evenodd" clip-rule="evenodd" d="M17.7059 39.2059V40.4706H18.9706V43H15.1765V39.2059H17.7059ZM27.0627 40.4706V43H23.0167V40.4706H27.0627ZM35.1573 40.4706V43H31.1113V40.4706H35.1573ZM43 39.2059V43H39.2059V40.4706H40.4706V39.2059H43ZM35.4118 7.58825V12.6471H32.8823V10.1177H10.1177V32.8823H12.6471V35.4118H7.58825V7.58825H35.4118ZM43 31.1137V35.1598H40.4706V31.1137H43ZM17.7059 31.1113V35.1573H15.1765V31.1113H17.7059ZM27.8235 0V5.05882H25.2941V2.52943H2.52941V25.2941H5.05882V27.8235H0V0H27.8235ZM43 23.0191V27.0652H40.4706V23.0191H43ZM17.7059 23.0167V27.0627H15.1765V23.0167H17.7059ZM43 15.1765V18.9706H40.4706V17.7059H39.2059V15.1765H43ZM18.9706 15.1765V17.7059H17.7059V18.9706H15.1765V15.1765H18.9706ZM27.0652 15.1765V17.7059H23.0191V15.1765H27.0652ZM35.1598 15.1765V17.7059H31.1137V15.1765H35.1598Z" fill="black"/>
</svg>
