<svg width="50" height="52" viewBox="0 0 50 52" fill="none" xmlns="http://www.w3.org/2000/svg">
<path d="M17.4726 37.7345L13.7285 33.8439C11.2324 33.1955 7.48826 33.5197 5.30418 37.0861C2.8081 40.6525 4.36815 46.1642 0 52.0001C0 52.0001 10.9204 52.0001 14.9765 47.7853C18.7206 43.8947 18.7206 40.6525 18.0966 38.0587L17.4726 37.7345Z" fill="black"/>
<path d="M18.0962 26.3887C17.4722 27.3613 16.5361 28.6582 15.9121 29.6309C15.9121 30.2793 15.6001 30.6035 15.2881 30.9277L19.9682 35.791C20.2803 35.4668 20.9043 35.1426 21.2163 34.8183C22.1523 34.1699 23.4004 33.5215 24.3364 32.5488C25.5844 32.5488 26.2085 31.9004 26.8325 31.2519L19.9682 24.1191C19.3442 24.7676 18.7202 25.416 18.0962 26.3887Z" fill="black"/>
<path d="M49.2978 0.776139C48.3617 -0.196516 47.1137 -0.196516 46.1777 0.451921C46.1777 0.451921 36.8173 8.55738 27.769 16.9871C26.521 18.2839 25.585 19.2566 24.3369 20.2292C23.7129 20.8777 23.0889 21.5261 22.4648 21.8503L29.0171 28.6589C29.6411 28.0105 30.2651 27.3621 30.5771 26.3894C31.5132 25.0925 32.4492 24.1199 33.3852 22.823C41.1855 13.0964 49.2978 3.69411 49.2978 3.69411C50.2338 3.04567 50.2338 1.74879 49.2978 0.776139Z" fill="black"/>
</svg>
