<svg width="50" height="41" viewBox="0 0 50 41" fill="none" xmlns="http://www.w3.org/2000/svg">
<path d="M42.327 3.39877C39.0854 1.79798 35.6644 0.656468 32.1498 0.00281726C32.1178 -0.00359056 32.0848 0.00099641 32.0555 0.015925C32.0261 0.0308537 32.0019 0.0553637 31.9862 0.0859681C31.5466 0.927112 31.0598 2.02421 30.7189 2.88642C26.8758 2.26738 23.0523 2.26738 19.2881 2.88642C18.9473 2.00493 18.4427 0.927112 18.0012 0.0859681C17.9849 0.0560611 17.9605 0.0321508 17.9314 0.0173577C17.9022 0.00256456 17.8695 -0.00242417 17.8377 0.00304169C14.3227 0.655173 10.9014 1.79659 7.66021 3.39855C7.63248 3.41129 7.60911 3.43299 7.59333 3.46063C1.11126 13.8789 -0.664574 24.041 0.206675 34.0771C0.209138 34.1017 0.21616 34.1255 0.227326 34.1471C0.238491 34.1687 0.253572 34.1876 0.271675 34.2028C4.54834 37.5818 8.69104 39.633 12.7569 40.9925C12.7885 41.0027 12.8222 41.0022 12.8536 40.9911C12.8849 40.9801 12.9124 40.959 12.9323 40.9307C13.8939 39.5178 14.7512 38.0278 15.4864 36.4611C15.4966 36.4397 15.5023 36.4162 15.5034 36.3922C15.5044 36.3681 15.5007 36.3441 15.4925 36.3218C15.4844 36.2994 15.4719 36.2791 15.4559 36.2623C15.4399 36.2455 15.4208 36.2325 15.3998 36.2242C14.0398 35.6693 12.745 34.9927 11.4994 34.2244C11.4767 34.21 11.4576 34.1899 11.4438 34.1657C11.4301 34.1415 11.422 34.1141 11.4205 34.0858C11.4189 34.0575 11.4238 34.0293 11.4348 34.0035C11.4458 33.9777 11.4626 33.9553 11.4835 33.9382C11.7456 33.7268 12.0079 33.5072 12.2581 33.2851C12.2804 33.2653 12.3073 33.2527 12.3358 33.2485C12.3644 33.2444 12.3935 33.2489 12.4198 33.2615C20.6027 37.2808 29.4614 37.2808 37.5477 33.2615C37.574 33.248 37.6034 33.2429 37.6323 33.2467C37.6613 33.2504 37.6886 33.263 37.7112 33.2828C37.9616 33.5047 38.2237 33.7268 38.4879 33.9382C38.5089 33.9551 38.5257 33.9774 38.5369 34.003C38.548 34.0287 38.5531 34.0568 38.5518 34.0851C38.5504 34.1133 38.5426 34.1408 38.5291 34.165C38.5155 34.1893 38.4967 34.2096 38.4741 34.2241C37.228 35.0071 35.9227 35.6755 34.572 36.222C34.5511 36.2306 34.532 36.2439 34.5162 36.261C34.5003 36.2781 34.4879 36.2986 34.4799 36.3212C34.4719 36.3437 34.4684 36.3679 34.4697 36.392C34.471 36.4161 34.4769 36.4397 34.4873 36.4611C35.2381 38.0255 36.0954 39.5155 37.0393 40.9284C37.0586 40.9576 37.0859 40.9794 37.1174 40.991C37.1489 41.0025 37.183 41.003 37.2148 40.9925C41.3002 39.6327 45.4429 37.5815 49.7195 34.2028C49.7379 34.1884 49.7533 34.1699 49.7645 34.1486C49.7758 34.1272 49.7827 34.1036 49.7847 34.0791C50.8272 22.4761 48.0385 12.3974 42.392 3.46265C42.3782 3.43362 42.3551 3.41111 42.327 3.39877ZM16.7083 27.9661C14.2448 27.9661 12.2148 25.5328 12.2148 22.5445C12.2148 19.5565 14.2054 17.1231 16.7085 17.1231C19.231 17.1231 21.2412 19.5777 21.2019 22.5447C21.2019 25.5328 19.2112 27.9661 16.7083 27.9661ZM33.3225 27.9661C30.8589 27.9661 28.8289 25.5328 28.8289 22.5445C28.8289 19.5565 30.8193 17.1231 33.3225 17.1231C35.845 17.1231 37.8552 19.5777 37.8158 22.5447C37.8158 25.5328 35.845 27.9661 33.3225 27.9661Z" fill="black"/>
</svg>
