<svg width="34" height="49" viewBox="0 0 34 49" fill="none" xmlns="http://www.w3.org/2000/svg">
<path d="M24.8505 18.3362H15.5012V0H24.8505C29.896 0 34 4.11192 34 9.16708C34 14.2223 29.896 18.3362 24.8505 18.3362ZM18.4988 15.3329H24.8505C28.2433 15.3329 31.0025 12.5665 31.0025 9.16913C31.0025 5.77179 28.2413 3.00533 24.8505 3.00533H18.4988V15.3329ZM18.4988 18.3362H9.15157C4.10608 18.3362 0.00203761 14.2243 0.00203761 9.16913C0.00203761 4.11396 4.10608 0 9.15157 0H18.5008V18.3362H18.4988ZM9.15157 3.00329C5.75871 3.00329 2.99958 5.76975 2.99958 9.16708C2.99958 12.5644 5.75871 15.3329 9.15157 15.3329H15.5033V3.00329H9.15157ZM18.4988 33.6671H9.15157C4.10608 33.6671 0.00203761 29.5552 0.00203761 24.5C0.00203761 19.4448 4.10608 15.3329 9.15157 15.3329H18.5008V33.6671H18.4988ZM9.15157 18.3362C5.75871 18.3362 2.99958 21.1027 2.99958 24.5C2.99958 27.8973 5.76074 30.6638 9.15157 30.6638H15.5033V18.3362H9.15157ZM9.20048 49C4.1285 49 0 44.8881 0 39.8329C0 34.7778 4.10405 30.6658 9.14954 30.6658H18.4988V39.7329C18.4988 44.8432 14.3275 49 9.20048 49ZM9.15157 33.6671C7.52063 33.6692 5.95709 34.3193 4.80384 35.4748C3.65058 36.6303 3.00174 38.1968 2.99958 39.8309C2.99958 43.2303 5.78112 45.9947 9.20252 45.9947C12.6769 45.9947 15.5053 43.1853 15.5053 39.7308V33.6671H9.15157ZM24.8505 33.6671H24.6508C19.6053 33.6671 15.5012 29.5552 15.5012 24.5C15.5012 19.4448 19.6053 15.3329 24.6508 15.3329H24.8505C29.896 15.3329 34 19.4448 34 24.5C34 29.5552 29.896 33.6671 24.8505 33.6671ZM24.6528 18.3362C21.2599 18.3362 18.5008 21.1027 18.5008 24.5C18.5008 27.8973 21.262 30.6638 24.6528 30.6638H24.8525C28.2454 30.6638 31.0045 27.8973 31.0045 24.5C31.0045 21.1027 28.2413 18.3362 24.8505 18.3362H24.6528Z" fill="black"/>
</svg>
