<svg width="50" height="45" viewBox="0 0 50 45" fill="none" xmlns="http://www.w3.org/2000/svg">
<path d="M50 6.14694V40.9088C50 43.1681 48.475 44.9975 46.5917 44.9975H38.6354V21.8246L25 34.0958L11.3646 21.8246V45H3.40833C2.96057 45 2.51719 44.8942 2.10354 44.6885C1.68989 44.4829 1.31406 44.1815 0.997541 43.8016C0.681021 43.4216 0.430009 42.9706 0.258846 42.4742C0.0876841 41.9779 -0.000273058 41.4459 6.36774e-07 40.9088V6.14694C6.36774e-07 1.09099 4.81042 -1.79562 8.18125 1.23845L11.3646 4.10507L25 16.3713L38.6354 4.10007L41.8187 1.23845C45.1875 -1.79312 50 1.09099 50 6.14694Z" fill="black"/>
</svg>
