<svg width="50" height="50" viewBox="0 0 50 50" fill="none" xmlns="http://www.w3.org/2000/svg">
<path d="M41.6666 0H8.33335C3.74999 0 0 3.74999 0 8.33335V41.6667C0 46.25 3.74999 50 8.33335 50H41.6667C46.25 50 50 46.25 50 41.6667V8.33335C49.9999 3.74999 46.2499 0 41.6666 0ZM23.9558 25.4426C22.2204 27.178 19.4929 27.993 16.4115 27.993C15.5968 27.993 14.8531 27.9573 14.2863 27.851V36.8476H9.96544V13.2938C11.5239 13.0105 13.6845 12.7978 16.6239 12.7978C19.812 12.7978 22.1497 13.4708 23.6728 14.7461C25.0896 15.915 26.0103 17.7921 26.0103 20.0235C26.0102 22.2905 25.3019 24.1675 23.9558 25.4426ZM33.0216 37.2021C30.9317 37.2021 29.0546 36.7061 27.7795 35.9976L28.6295 32.8453C29.6212 33.4475 31.4986 34.0852 33.057 34.0852C34.9694 34.0852 35.8198 33.3059 35.8198 32.1723C35.8198 31.0038 35.1115 30.4014 32.9861 29.6577C29.6211 28.4887 28.2047 26.647 28.2401 24.628C28.2401 21.582 30.7547 19.209 34.7571 19.209C36.6699 19.209 38.3346 19.705 39.326 20.236L38.4761 23.3175C37.7322 22.8926 36.3507 22.3258 34.8278 22.3258C33.2693 22.3258 32.4193 23.0696 32.4193 24.132C32.4193 25.2303 33.234 25.7617 35.4301 26.5408C38.5469 27.6741 39.9991 29.2679 40.0346 31.8184C40.0345 34.9353 37.5907 37.2021 33.0216 37.2021ZM21.6536 20.2005C21.6536 22.9988 19.6699 24.5926 16.4115 24.5926C15.5261 24.5926 14.8177 24.5572 14.2863 24.4156V16.3399C14.7469 16.2337 15.5969 16.1275 16.8013 16.1275C19.812 16.1275 21.6536 17.5443 21.6536 20.2005Z" fill="black"/>
</svg>
