<svg width="48" height="48" viewBox="0 0 48 48" fill="none" xmlns="http://www.w3.org/2000/svg">
<path d="M34.9962 28.764C34.3993 28.466 31.4634 27.03 30.9168 26.83C30.3682 26.632 29.9703 26.534 29.5704 27.13C29.1745 27.724 28.0291 29.062 27.6814 29.458C27.3338 29.856 26.9841 29.904 26.3873 29.608C25.7904 29.308 23.8653 28.682 21.5845 26.658C19.8101 25.082 18.6104 23.136 18.2627 22.54C17.9151 21.946 18.2265 21.624 18.5239 21.328C18.7932 21.062 19.1228 20.634 19.4202 20.288C19.7196 19.94 19.8181 19.692 20.019 19.2941C20.218 18.8981 20.1195 18.5521 19.9688 18.2541C19.8181 17.9561 18.6244 15.0301 18.1281 13.8401C17.6418 12.6821 17.1494 12.8401 16.7837 12.8201C16.436 12.8041 16.0381 12.8001 15.6382 12.8001C15.2404 12.8001 14.5933 12.9481 14.0467 13.5441C13.5001 14.1381 11.9568 15.5761 11.9568 18.5021C11.9568 21.426 14.0969 24.252 14.3943 24.65C14.6938 25.046 18.6063 31.05 24.5968 33.624C26.0215 34.236 27.1328 34.602 28.0009 34.874C29.4317 35.328 30.7339 35.264 31.7608 35.11C32.9082 34.94 35.2936 33.672 35.7919 32.284C36.2903 30.896 36.2903 29.706 36.1396 29.458C35.9909 29.21 35.595 29.062 34.9962 28.764ZM24.1004 43.57H24.0924C20.535 43.5703 17.0431 42.6184 13.9824 40.814L13.2569 40.386L5.73925 42.35L7.74477 35.054L7.27253 34.306C5.28397 31.1546 4.23197 27.5074 4.23812 23.786C4.24013 12.8861 13.1524 4.01808 24.1085 4.01808C29.4136 4.01808 34.4013 6.07807 38.1511 9.81407C40.0013 11.6473 41.4677 13.8275 42.4656 16.2285C43.4635 18.6296 43.9731 21.2037 43.9647 23.802C43.9587 34.702 35.0484 43.57 24.1004 43.57ZM41.0067 6.97607C38.7926 4.75792 36.1581 2.99915 33.2561 1.80168C30.354 0.604209 27.242 -0.00815248 24.1004 8.1955e-05C10.9279 8.1955e-05 0.206983 10.6701 0.200954 23.784C0.200954 27.976 1.30017 32.068 3.3921 35.674L0 48L12.6702 44.692C16.174 46.5918 20.1003 47.5875 24.0904 47.588H24.1004C37.2709 47.588 47.9939 36.918 47.9999 23.802C48.0096 20.6766 47.3965 17.5803 46.1962 14.6921C44.9958 11.804 43.232 9.18141 41.0067 6.97607Z" fill="black"/>
</svg>
